{
  "accessors": [
    {
      "bufferView": 2,
      "componentType": 5126,
      "count": 227,
      "max": [
        2.425896406173706,
        8.108168601989746,
        2.425896406173706
      ],
      "min": [
        -2.425896406173706,
        0.7499861121177673,
        -2.425896406173706
      ],
      "type": "VEC3"
    },
    {
      "bufferView": 2,
      "byteOffset": 2724,
      "componentType": 5126,
      "count": 227,
      "max": [
        0.9813776016235352,
        0.9982118010520935,
        0.9813776016235352
      ],
      "min": [
        -0.9813776016235352,
        -0.950122058391571,
        -0.9813776016235352
      ],
      "type": "VEC3"
    },
    {
      "bufferView": 1,
      "componentType": 5126,
      "count": 227,
      "max": [
        1.0,
        1.0935285091400146
      ],
      "min": [
        7.450580596923828e-08,
        0.0
      ],
      "type": "VEC2"
    },
    {
      "bufferView": 0,
      "componentType": 5125,
      "count": 924,
      "type": "SCALAR"
    },
    {
      "bufferView": 2,
      "byteOffset": 5448,
      "componentType": 5126,
      "count": 362,
      "max": [
        3.0979082584381104,
        8.143810272216797,
        3.0979082584381104
      ],
      "min": [
        -3.0979082584381104,
        -1.8669979340302234e-07,
        -3.0979082584381104
      ],
      "type": "VEC3"
    },
    {
      "bufferView": 2,
      "byteOffset": 9792,
      "componentType": 5126,
      "count": 362,
      "max": [
        0.9813776016235352,
        0.9969844818115234,
        0.9813776016235352
      ],
      "min": [
        -0.9813776016235352,
        -1.0,
        -0.9813776016235352
      ],
      "type": "VEC3"
    },
    {
      "bufferView": 1,
      "byteOffset": 1816,
      "componentType": 5126,
      "count": 362,
      "max": [
        1.0,
        1.0935285091400146
      ],
      "min": [
        7.450580596923828e-08,
        0.0
      ],
      "type": "VEC2"
    },
    {
      "bufferView": 0,
      "byteOffset": 3696,
      "componentType": 5125,
      "count": 1254,
      "type": "SCALAR"
    },
    {
      "bufferView": 2,
      "byteOffset": 14136,
      "componentType": 5126,
      "count": 111,
      "max": [
        1.238998532295227,
        0.8857226371765137,
        1.238998293876648
      ],
      "min": [
        -1.2428423166275024,
        -0.883267879486084,
        -1.242842435836792
      ],
      "type": "VEC3"
    },
    {
      "bufferView": 2,
      "byteOffset": 15468,
      "componentType": 5126,
      "count": 111,
      "max": [
        0.9209222197532654,
        0.9038893580436707,
        0.9209222197532654
      ],
      "min": [
        -0.9189883470535278,
        -0.9390688538551331,
        -0.9189883470535278
      ],
      "type": "VEC3"
    },
    {
      "bufferView": 1,
      "byteOffset": 4712,
      "componentType": 5126,
      "count": 111,
      "max": [
        0.9472411870956421,
        0.5764749050140381
      ],
      "min": [
        0.3535400629043579,
        0.0013429224491119385
      ],
      "type": "VEC2"
    },
    {
      "bufferView": 0,
      "byteOffset": 8712,
      "componentType": 5125,
      "count": 276,
      "type": "SCALAR"
    },
    {
      "bufferView": 2,
      "byteOffset": 16800,
      "componentType": 5126,
      "count": 125,
      "max": [
        2.380288600921631,
        3.69442081451416,
        2.380288600921631
      ],
      "min": [
        -2.380288600921631,
        0.7755585312843323,
        -2.380288600921631
      ],
      "type": "VEC3"
    },
    {
      "bufferView": 2,
      "byteOffset": 18300,
      "componentType": 5126,
      "count": 125,
      "max": [
        0.9806464314460754,
        0.9899383187294006,
        0.9806464314460754
      ],
      "min": [
        -0.9806464314460754,
        -0.9982118010520935,
        -0.9806464314460754
      ],
      "type": "VEC3"
    },
    {
      "bufferView": 1,
      "byteOffset": 5600,
      "componentType": 5126,
      "count": 125,
      "max": [
        0.5278517603874207,
        1.0
      ],
      "min": [
        0.125,
        0.0
      ],
      "type": "VEC2"
    },
    {
      "bufferView": 0,
      "byteOffset": 9816,
      "componentType": 5125,
      "count": 564,
      "type": "SCALAR"
    },
    {
      "bufferView": 2,
      "byteOffset": 19800,
      "componentType": 5126,
      "count": 49,
      "max": [
        1.381819486618042,
        0.3993172347545624,
        1.381819486618042
      ],
      "min": [
        -1.3818193674087524,
        -0.3993172347545624,
        -1.381819486618042
      ],
      "type": "VEC3"
    },
    {
      "bufferView": 2,
      "byteOffset": 20388,
      "componentType": 5126,
      "count": 49,
      "max": [
        1.0,
        1.0,
        1.0
      ],
      "min": [
        -1.0,
        -1.0,
        -1.0
      ],
      "type": "VEC3"
    },
    {
      "bufferView": 1,
      "byteOffset": 6600,
      "componentType": 5126,
      "count": 49,
      "max": [
        0.8750001192092896,
        1.0000001192092896
      ],
      "min": [
        0.1250000149011612,
        0.0
      ],
      "type": "VEC2"
    },
    {
      "bufferView": 0,
      "byteOffset": 12072,
      "componentType": 5125,
      "count": 144,
      "type": "SCALAR"
    },
    {
      "bufferView": 2,
      "byteOffset": 20976,
      "componentType": 5126,
      "count": 49,
      "max": [
        0.7875066995620728,
        0.22757309675216675,
        0.7875065803527832
      ],
      "min": [
        -0.7875064015388489,
        -0.22757309675216675,
        -0.7875065207481384
      ],
      "type": "VEC3"
    },
    {
      "bufferView": 2,
      "byteOffset": 21564,
      "componentType": 5126,
      "count": 49,
      "max": [
        1.0,
        1.0,
        1.0
      ],
      "min": [
        -1.0,
        -1.0,
        -1.0
      ],
      "type": "VEC3"
    },
    {
      "bufferView": 1,
      "byteOffset": 6992,
      "componentType": 5126,
      "count": 49,
      "max": [
        0.8750001192092896,
        1.0000001192092896
      ],
      "min": [
        0.1250000149011612,
        0.0
      ],
      "type": "VEC2"
    },
    {
      "bufferView": 0,
      "byteOffset": 12648,
      "componentType": 5125,
      "count": 144,
      "type": "SCALAR"
    },
    {
      "bufferView": 2,
      "byteOffset": 22152,
      "componentType": 5126,
      "count": 49,
      "max": [
        0.2917262315750122,
        0.29172635078430176,
        0.29172635078430176
      ],
      "min": [
        -0.2917264699935913,
        -0.29172635078430176,
        -0.29172635078430176
      ],
      "type": "VEC3"
    },
    {
      "bufferView": 2,
      "byteOffset": 22740,
      "componentType": 5126,
      "count": 49,
      "max": [
        1.0,
        1.0,
        1.0
      ],
      "min": [
        -1.0,
        -1.0,
        -1.0
      ],
      "type": "VEC3"
    },
    {
      "bufferView": 1,
      "byteOffset": 7384,
      "componentType": 5126,
      "count": 49,
      "max": [
        0.8750001192092896,
        1.0000001192092896
      ],
      "min": [
        0.1250000149011612,
        0.0
      ],
      "type": "VEC2"
    },
    {
      "bufferView": 0,
      "byteOffset": 13224,
      "componentType": 5125,
      "count": 144,
      "type": "SCALAR"
    },
    {
      "bufferView": 2,
      "byteOffset": 23328,
      "componentType": 5126,
      "count": 49,
      "max": [
        0.4106568396091461,
        0.41065675020217896,
        0.41065680980682373
      ],
      "min": [
        -0.41065654158592224,
        -0.4106566309928894,
        -0.41065657138824463
      ],
      "type": "VEC3"
    },
    {
      "bufferView": 2,
      "byteOffset": 23916,
      "componentType": 5126,
      "count": 49,
      "max": [
        1.0,
        1.0,
        1.0
      ],
      "min": [
        -1.0,
        -1.0,
        -1.0
      ],
      "type": "VEC3"
    },
    {
      "bufferView": 1,
      "byteOffset": 7776,
      "componentType": 5126,
      "count": 49,
      "max": [
        0.8750001192092896,
        1.0000001192092896
      ],
      "min": [
        0.1250000149011612,
        0.0
      ],
      "type": "VEC2"
    },
    {
      "bufferView": 0,
      "byteOffset": 13800,
      "componentType": 5125,
      "count": 144,
      "type": "SCALAR"
    },
    {
      "bufferView": 2,
      "byteOffset": 24504,
      "componentType": 5126,
      "count": 49,
      "max": [
        0.2917262315750122,
        0.29172635078430176,
        0.29172635078430176
      ],
      "min": [
        -0.2917264699935913,
        -0.29172635078430176,
        -0.29172635078430176
      ],
      "type": "VEC3"
    },
    {
      "bufferView": 2,
      "byteOffset": 25092,
      "componentType": 5126,
      "count": 49,
      "max": [
        1.0,
        1.0,
        1.0
      ],
      "min": [
        -1.0,
        -1.0,
        -1.0
      ],
      "type": "VEC3"
    },
    {
      "bufferView": 1,
      "byteOffset": 8168,
      "componentType": 5126,
      "count": 49,
      "max": [
        0.8750001192092896,
        1.0000001192092896
      ],
      "min": [
        0.1250000149011612,
        0.0
      ],
      "type": "VEC2"
    },
    {
      "bufferView": 0,
      "byteOffset": 14376,
      "componentType": 5125,
      "count": 144,
      "type": "SCALAR"
    }
  ],
  "asset": {
    "extras": {
      "author": "Epitaph Crimson (https://sketchfab.com/Judith.Samaniego)",
      "license": "CC-BY-SA-4.0 (http://creativecommons.org/licenses/by-sa/4.0/)",
      "source": "https://sketchfab.com/3d-models/lowpoly-glass-bottle-with-cork-4-96e7d754aa0e423fb7193b25877bad35",
      "title": "Lowpoly Glass Bottle with Cork #4"
    },
    "generator": "Sketchfab-12.66.0",
    "version": "2.0"
  },
  "bufferViews": [
    {
      "buffer": 0,
      "byteLength": 14952,
      "name": "floatBufferViews",
      "target": 34963
    },
    {
      "buffer": 0,
      "byteLength": 8560,
      "byteOffset": 14952,
      "byteStride": 8,
      "name": "floatBufferViews",
      "target": 34962
    },
    {
      "buffer": 0,
      "byteLength": 25680,
      "byteOffset": 23512,
      "byteStride": 12,
      "name": "floatBufferViews",
      "target": 34962
    }
  ],
  "buffers": [
    {
      "byteLength": 49192,
      "uri": "scene.bin"
    }
  ],
  "extensionsUsed": [
    "KHR_materials_clearcoat",
    "KHR_materials_transmission"
  ],
  "images": [
    {
      "uri": "textures/Cork_baseColor.png"
    }
  ],
  "materials": [
    {
      "alphaMode": "BLEND",
      "doubleSided": true,
      "extensions": {
        "KHR_materials_clearcoat": {
          "clearcoatFactor": 1.0,
          "clearcoatRoughnessFactor": 0.04
        }
      },
      "name": "Interior_Glass",
      "pbrMetallicRoughness": {
        "baseColorFactor": [
          0.5,
          0.5,
          0.5,
          0.251
        ],
        "metallicFactor": 0.0,
        "roughnessFactor": 0.9
      }
    },
    {
      "alphaMode": "BLEND",
      "doubleSided": true,
      "extensions": {
        "KHR_materials_transmission": {
          "transmissionFactor": 1.0
        }
      },
      "name": "Glass",
      "pbrMetallicRoughness": {
        "baseColorFactor": [
          1.0,
          1.0,
          1.0,
          0.25
        ],
        "metallicFactor": 0.0,
        "roughnessFactor": 0.4
      }
    },
    {
      "doubleSided": true,
      "name": "Cork",
      "pbrMetallicRoughness": {
        "baseColorTexture": {
          "index": 0
        },
        "metallicFactor": 0.0
      }
    },
    {
      "doubleSided": true,
      "emissiveFactor": [
        0.06116867716040321,
        0.0,
        1.0
      ],
      "name": "Liquid",
      "pbrMetallicRoughness": {
        "baseColorFactor": [
          0.5617839999999997,
          0.01948290000000001,
          0.799103,
          1.0
        ],
        "metallicFactor": 0.0,
        "roughnessFactor": 0.5
      }
    }
  ],
  "meshes": [
    {
      "name": "Object_0",
      "primitives": [
        {
          "attributes": {
            "NORMAL": 1,
            "POSITION": 0,
            "TEXCOORD_0": 2
          },
          "indices": 3,
          "material": 0,
          "mode": 4
        }
      ]
    },
    {
      "name": "Object_1",
      "primitives": [
        {
          "attributes": {
            "NORMAL": 5,
            "POSITION": 4,
            "TEXCOORD_0": 6
          },
          "indices": 7,
          "material": 1,
          "mode": 4
        }
      ]
    },
    {
      "name": "Object_2",
      "primitives": [
        {
          "attributes": {
            "NORMAL": 9,
            "POSITION": 8,
            "TEXCOORD_0": 10
          },
          "indices": 11,
          "material": 2,
          "mode": 4
        }
      ]
    },
    {
      "name": "Object_3",
      "primitives": [
        {
          "attributes": {
            "NORMAL": 13,
            "POSITION": 12,
            "TEXCOORD_0": 14
          },
          "indices": 15,
          "material": 3,
          "mode": 4
        }
      ]
    },
    {
      "name": "Object_4",
      "primitives": [
        {
          "attributes": {
            "NORMAL": 17,
            "POSITION": 16,
            "TEXCOORD_0": 18
          },
          "indices": 19,
          "material": 3,
          "mode": 4
        }
      ]
    },
    {
      "name": "Object_5",
      "primitives": [
        {
          "attributes": {
            "NORMAL": 21,
            "POSITION": 20,
            "TEXCOORD_0": 22
          },
          "indices": 23,
          "material": 3,
          "mode": 4
        }
      ]
    },
    {
      "name": "Object_6",
      "primitives": [
        {
          "attributes": {
            "NORMAL": 25,
            "POSITION": 24,
            "TEXCOORD_0": 26
          },
          "indices": 27,
          "material": 3,
          "mode": 4
        }
      ]
    },
    {
      "name": "Object_7",
      "primitives": [
        {
          "attributes": {
            "NORMAL": 29,
            "POSITION": 28,
            "TEXCOORD_0": 30
          },
          "indices": 31,
          "material": 3,
          "mode": 4
        }
      ]
    },
    {
      "name": "Object_8",
      "primitives": [
        {
          "attributes": {
            "NORMAL": 33,
            "POSITION": 32,
            "TEXCOORD_0": 34
          },
          "indices": 35,
          "material": 3,
          "mode": 4
        }
      ]
    }
  ],
  "nodes": [
    {
      "children": [
        1
      ],
      "matrix": [
        1.0,
        1.6081226229577284e-16,
        3.8285688045569407e-16,
        0.0,
        3.82856880455694e-16,
        6.123234262925839e-17,
        -1.0,
        0.0,
        -1.6081226229577292e-16,
        1.0,
        6.123234262925839e-17,
        0.0,
        7.231628490478315e-16,
        -3.0849786590437792e-31,
        1.3893508739315497e-15,
        1.0
      ],
      "name": "Sketchfab_model"
    },
    {
      "children": [
        2
      ],
      "name": "root"
    },
    {
      "children": [
        3,
        5,
        7,
        9,
        11,
        13,
        15,
        17,
        19
      ],
      "matrix": [
        1.0,
        0.0,
        0.0,
        0.0,
        0.0,
        2.220446049250313e-16,
        1.0,
        0.0,
        0.0,
        -1.0,
        2.220446049250313e-16,
        0.0,
        0.0,
        0.0,
        0.0,
        1.0
      ],
      "name": "GLTF_SceneRootNode"
    },
    {
      "children": [
        4
      ],
      "name": "Interior Glass_2"
    },
    {
      "mesh": 0,
      "name": "Object_4"
    },
    {
      "children": [
        6
      ],
      "name": "Glass_3"
    },
    {
      "mesh": 1,
      "name": "Object_6"
    },
    {
      "children": [
        8
      ],
      "matrix": [
        1.0,
        0.0,
        0.0,
        0.0,
        0.0,
        1.0,
        0.0,
        0.0,
        0.0,
        0.0,
        1.0,
        0.0,
        0.0,
        8.108510971069336,
        0.0,
        1.0
      ],
      "name": "Cork_4"
    },
    {
      "mesh": 2,
      "name": "Object_8"
    },
    {
      "children": [
        10
      ],
      "name": "Liquid_5"
    },
    {
      "mesh": 3,
      "name": "Object_10"
    },
    {
      "children": [
        12
      ],
      "matrix": [
        1.0,
        0.0,
        0.0,
        0.0,
        0.0,
        1.0,
        0.0,
        0.0,
        0.0,
        0.0,
        1.0,
        0.0,
        -0.5831993818283081,
        3.6299118995666504,
        -0.26488789916038513,
        1.0
      ],
      "name": "Cube_6"
    },
    {
      "mesh": 4,
      "name": "Object_12"
    },
    {
      "children": [
        14
      ],
      "matrix": [
        1.0,
        0.0,
        0.0,
        0.0,
        0.0,
        1.0,
        0.0,
        0.0,
        0.0,
        0.0,
        1.0,
        0.0,
        0.6359933018684387,
        3.6299123764038086,
        0.643366277217865,
        1.0
      ],
      "name": "Cube.001_7"
    },
    {
      "mesh": 5,
      "name": "Object_14"
    },
    {
      "children": [
        16
      ],
      "matrix": [
        1.0,
        0.0,
        0.0,
        0.0,
        0.0,
        1.0,
        0.0,
        0.0,
        0.0,
        0.0,
        1.0,
        0.0,
        1.100970983505249,
        4.302201747894287,
        0.0,
        1.0
      ],
      "name": "Cube.002_8"
    },
    {
      "mesh": 6,
      "name": "Object_16"
    },
    {
      "children": [
        18
      ],
      "matrix": [
        1.0,
        0.0,
        0.0,
        0.0,
        0.0,
        1.0,
        0.0,
        0.0,
        0.0,
        0.0,
        1.0,
        0.0,
        -0.6468225717544556,
        5.011906623840332,
        0.9568353891372681,
        1.0
      ],
      "name": "Cube.003_9"
    },
    {
      "mesh": 7,
      "name": "Object_18"
    },
    {
      "children": [
        20
      ],
      "matrix": [
        0.8451718688011169,
        0.0,
        0.0,
        0.0,
        0.0,
        0.8451718688011169,
        0.0,
        0.0,
        0.0,
        0.0,
        0.8451718688011169,
        0.0,
        -0.36796367168426514,
        5.457339286804199,
        -0.062262266874313354,
        1.0
      ],
      "name": "Cube.004_10"
    },
    {
      "mesh": 8,
      "name": "Object_20"
    }
  ],
  "samplers": [
    {
      "magFilter": 9729,
      "minFilter": 9987,
      "wrapS": 10497,
      "wrapT": 10497
    }
  ],
  "scene": 0,
  "scenes": [
    {
      "name": "Sketchfab_Scene",
      "nodes": [
        0
      ]
    }
  ],
  "textures": [
    {
      "sampler": 0,
      "source": 0
    }
  ]
}
